<svg width="47" height="53" viewBox="0 0 47 53" fill="none" xmlns="http://www.w3.org/2000/svg">
<path d="M30.0249 7.76636C29.8091 9.70863 27.7553 11.5979 26.6326 13.1093C24.7548 15.6371 22.6807 17.9729 20.4416 20.212C18.1178 22.5358 15.6004 25.2964 13.9962 28.1839C13.4246 29.2128 12.5728 30.0509 12.088 31.1416C11.9012 31.5619 11.5212 32.3791 11.1339 32.5728" stroke="white" stroke-width="2" stroke-linecap="round"/>
<path d="M30.4066 7.00317C31.446 8.87407 33.6519 10.6013 35.4103 11.7736C36.6821 12.6215 37.5268 13.5509 38.6118 14.6359" stroke="white" stroke-width="2" stroke-linecap="round"/>
<path d="M10.9431 33.1453C10.581 33.5527 10.3907 34.1908 10.1375 34.6718C9.77591 35.3588 9.20217 35.9522 8.74872 36.58C7.84245 37.8349 6.88445 39.3878 5.83344 40.4388C4.92707 41.3452 8.35422 43.7441 9.02434 44.4142C9.71734 45.1072 10.2165 47.0027 11.2188 46.0361C15.1372 42.2576 19.6322 38.8217 22.8693 34.3856C24.7952 31.7464 26.7273 29.0302 29.0285 26.6999C32.0595 23.6305 34.6073 20.116 37.4881 16.9151C38.066 16.2731 38.7515 15.6901 39.1843 14.9327C39.2839 14.7584 39.9701 14.2543 39.7567 14.2543" stroke="white" stroke-width="2" stroke-linecap="round"/>
<path d="M30.3845 7.86572C32.033 6.06736 33.3775 3.93087 35.1151 2.19333C35.3924 1.91601 35.7527 1.56767 36.0676 1.31571C36.5177 0.955607 36.6223 1.21756 37.1272 1.72241C38.9022 3.49742 40.9217 4.81057 42.6711 6.56C43.0443 6.93315 44.5118 7.71189 44.1588 8.34734C43.7582 9.06842 43.4538 10.4332 42.8103 10.9481C41.7881 11.7658 41.1622 13.8431 40.0169 14.4157" stroke="white" stroke-width="2" stroke-linecap="round"/>
<path d="M36.9817 5.7979C36.041 5.89196 34.4263 7.25735 34.484 8.29555C34.5733 9.90273 36.1694 10.0439 37.3424 10.0439C40.012 10.0439 37.1107 3.17122 34.484 5.7979C34.0989 6.18303 33.6449 6.79388 33.4295 7.29649C32.8492 8.65032 35.4981 5.18307 36.6764 4.29932C37.1572 3.93873 37.2716 3.86258 37.6755 4.54908C37.9202 4.96511 38.4978 5.31591 38.8549 5.67302C39.3266 6.14471 41.0399 6.8266 41.2138 7.43525C41.4916 8.4076 40.2157 9.51764 39.7846 10.2937C39.5462 10.7228 39.45 11.3165 39.174 10.5989C38.8779 9.82889 38.1899 9.03941 37.731 8.35105C37.1159 7.42854 35.9591 6.79696 34.8587 6.79696C34.1183 6.79696 31.6791 6.61845 31.5007 7.42137C31.2028 8.76183 33.5013 9.34951 34.2343 10.0439C34.9735 10.7443 36.1069 11.7217 36.9817 12.2363C37.255 12.397 37.4112 12.6786 37.6755 12.8468C38.1501 13.1488 42.2221 10.267 42.8234 9.93289C43.8865 9.34226 45.7046 7.97727 43.8363 9.04484C43.4552 9.26263 41.4383 10.6217 41.7272 10.0439" stroke="white" stroke-width="3" stroke-linecap="round"/>
<path d="M4.5053 41.1329C4.5053 43.1455 4.20303 45.038 3.30774 46.8812C2.95537 47.6067 2.19463 48.7136 2.11018 49.5159C1.97264 50.8225 1.11015 51.4383 2.88194 50.7134C5.54395 49.6244 8.13464 48.214 10.4931 46.6417" stroke="white" stroke-width="3" stroke-linecap="round"/>
</svg>
