<svg width="50" height="41" viewBox="0 0 50 41" fill="none" xmlns="http://www.w3.org/2000/svg">
<path d="M7.18266 1.99829C7.18266 8.83763 6.97902 15.8638 5.83216 22.6175C5.06934 27.1097 2.74752 31.2211 2.40767 35.809C2.36087 36.4409 1.86566 37.87 1.53949 38.4136C1.22136 38.9438 3.15413 38.4663 3.4929 38.4618C7.09341 38.4138 10.728 38.6409 14.321 38.8477C17.7744 39.0464 21.3076 39.1459 24.7633 39.1129C26.5964 39.0955 28.7873 39.1462 30.6235 38.8838C33.08 38.5329 35.0977 37.5936 37.6774 37.5936C38.5456 37.5936 39.4138 37.5936 40.282 37.5936C42.1951 37.5936 41.8988 34.3382 42.0183 32.9995C42.7015 25.3484 42.9627 17.68 43.6582 10.0289C43.8036 8.42966 44.3033 6.85832 44.5023 5.26602C44.5552 4.84318 44.6483 3.23357 44.9484 3.08351" stroke="white" stroke-width="3" stroke-linecap="round"/>
<path d="M47.77 3.30054C47.77 12.9843 47.9871 22.6613 47.9871 32.3363C47.9871 32.9472 47.9871 33.5582 47.9871 34.1691C47.9871 35.1033 47.0067 34.772 46.2628 34.772C45.2821 34.772 44.3013 34.772 43.3206 34.772C42.2046 34.772 43.4043 32.0117 43.6462 31.2993C44.1644 29.7734 44.0158 28.2667 44.3456 26.7414C44.9729 23.84 44.9485 20.5958 44.9485 17.6134C44.9485 14.6262 45.1655 11.6629 45.1655 8.67842C45.1655 8.08309 45.1655 6.18471 45.1655 7.91877C45.1655 13.3529 45.1655 18.7871 45.1655 24.2212C45.1655 27.0879 44.9485 35.6853 44.9485 32.8186" stroke="white" stroke-width="3" stroke-linecap="round"/>
<path d="M46.0337 4.81982V6.77323" stroke="white" stroke-width="3" stroke-linecap="round"/>
<path d="M15.4304 14.5868C14.6436 15.472 15.7151 15.1639 15.8524 14.6833C15.9571 14.3171 15.2211 15.3077 16.0816 15.0209" stroke="white" stroke-width="3" stroke-linecap="round"/>
<path d="M31.9257 14.3698C31.7786 14.5352 31.3299 15.6277 31.8775 15.1897C32.0988 15.0127 32.3703 14.3645 31.9257 14.5868" stroke="white" stroke-width="3" stroke-linecap="round"/>
<path d="M13.694 21.9663C14.0959 25.5836 19.1356 26.9583 22.0623 26.9583C23.3082 26.9583 24.5542 26.9583 25.8002 26.9583C27.3984 26.9583 28.4368 26.5424 29.9241 25.8731C31.3894 25.2137 32.7686 24.4445 33.8791 23.2686C34.189 22.9405 34.1444 22.3763 34.5303 22.1834" stroke="white" stroke-width="3" stroke-linecap="round"/>
</svg>
